<?xml version="1.0" encoding="UTF-8" standalone="no"?>
<svg
   xmlns:dc="http://purl.org/dc/elements/1.1/"
   xmlns:cc="http://creativecommons.org/ns#"
   xmlns:rdf="http://www.w3.org/1999/02/22-rdf-syntax-ns#"
   xmlns:svg="http://www.w3.org/2000/svg"
   xmlns="http://www.w3.org/2000/svg"
   xmlns:sodipodi="http://sodipodi.sourceforge.net/DTD/sodipodi-0.dtd"
   xmlns:inkscape="http://www.inkscape.org/namespaces/inkscape"
   inkscape:version="1.0 (4035a4fb49, 2020-05-01)"
   sodipodi:docname="icon-scroll-inverse.svg"
   id="svg4"
   version="1.1"
   viewBox="0 0 24 24"
   height="24"
   width="24">
  <metadata
     id="metadata10">
    <rdf:RDF>
      <cc:Work
         rdf:about="">
        <dc:format>image/svg+xml</dc:format>
        <dc:type
           rdf:resource="http://purl.org/dc/dcmitype/StillImage" />
        <dc:title></dc:title>
      </cc:Work>
    </rdf:RDF>
  </metadata>
  <defs
     id="defs8" />
  <sodipodi:namedview
     inkscape:current-layer="svg4"
     inkscape:window-maximized="1"
     inkscape:window-y="-8"
     inkscape:window-x="1912"
     inkscape:cy="8.3572257"
     inkscape:cx="13.331565"
     inkscape:zoom="30.625"
     showgrid="false"
     id="namedview6"
     inkscape:window-height="1017"
     inkscape:window-width="1920"
     inkscape:pageshadow="2"
     inkscape:pageopacity="0"
     guidetolerance="10"
     gridtolerance="10"
     objecttolerance="10"
     borderopacity="1"
     bordercolor="#666666"
     pagecolor="#ffffff" />
  <path
     style="fill:#ffffff"
     id="path2"
     d="M16 0h-8c-2.209 0-4 1.791-4 4v12c0 4.418 3.582 8 8 8s8-3.582 8-8v-12c0-2.209-1.791-4-4-4zm-3 8c0 .552-.448 1-1 1s-1-.448-1-1v-4c0-.552.448-1 1-1s1 .448 1 1v4z" />
  <path
     id="path835"
     d="m 12.595918,3.2 0.07347,0.053061 0.06122,0.069388 0.08163,0.093877 0.08571,0.1469388 0.07347,0.1714286 0.02449,0.1673469 V 4.1183674 L 13,8.0489796 l -0.01225,0.1346939 -0.01633,0.036735 -0.02449,0.077551 -0.01225,0.069388 -0.03265,0.069388 -0.04082,0.061224 L 12.8,8.6 12.697959,8.722449 12.6,8.8 12.52653,8.853061 12.4449,8.889796 12.334696,8.942857 12.212247,8.979592 12.085716,8.995918 H 11.918367 L 11.738776,8.967347 11.616327,8.9306123 11.489796,8.8653061 11.355102,8.7714286 11.195918,8.6 11.114286,8.4612245 11.036735,8.277551 11.004082,8.0693878 11,3.9714286 11.0082,3.844898 11.02045,3.77551 l 0.02449,-0.077551 0.04082,-0.1020408 0.04082,-0.081633 0.03265,-0.061224 0.04898,-0.057143 0.06531,-0.085714 0.06123,-0.065306 0.07347,-0.053061 0.07347,-0.04898 0.08571,-0.044898 0.08571,-0.036735 0.106123,-0.032653 0.09796,-0.020408 0.134694,-0.012245 0.122449,0.00816 0.106122,0.020408 0.09796,0.028571 0.09796,0.040816 0.09796,0.044898 z"
     style="fill:#000000;stroke:#000000;stroke-width:1px;stroke-linecap:butt;stroke-linejoin:miter;stroke-opacity:1" />
</svg>
