<?xml version="1.0" encoding="UTF-8" standalone="no"?>
<svg
   xmlns:dc="http://purl.org/dc/elements/1.1/"
   xmlns:cc="http://creativecommons.org/ns#"
   xmlns:rdf="http://www.w3.org/1999/02/22-rdf-syntax-ns#"
   xmlns:svg="http://www.w3.org/2000/svg"
   xmlns="http://www.w3.org/2000/svg"
   xmlns:sodipodi="http://sodipodi.sourceforge.net/DTD/sodipodi-0.dtd"
   xmlns:inkscape="http://www.inkscape.org/namespaces/inkscape"
   inkscape:version="1.0 (4035a4fb49, 2020-05-01)"
   sodipodi:docname="microphone.svg"
   xml:space="preserve"
   style="enable-background:new 0 0 512.001 512.001;"
   viewBox="0 0 512.001 512.001"
   y="0px"
   x="0px"
   id="Layer_1"
   version="1.1"><metadata
   id="metadata49"><rdf:RDF><cc:Work
       rdf:about=""><dc:format>image/svg+xml</dc:format><dc:type
         rdf:resource="http://purl.org/dc/dcmitype/StillImage" /></cc:Work></rdf:RDF></metadata><defs
   id="defs47" /><sodipodi:namedview
   inkscape:current-layer="Layer_1"
   inkscape:window-maximized="1"
   inkscape:window-y="-8"
   inkscape:window-x="1912"
   inkscape:cy="256.00049"
   inkscape:cx="256.00049"
   inkscape:zoom="1.4355441"
   showgrid="false"
   id="namedview45"
   inkscape:window-height="1017"
   inkscape:window-width="1920"
   inkscape:pageshadow="2"
   inkscape:pageopacity="0"
   guidetolerance="10"
   gridtolerance="10"
   objecttolerance="10"
   borderopacity="1"
   bordercolor="#666666"
   pagecolor="#ffffff" />
<g
   style="fill:#ffffff"
   id="g6">
	<g
   style="fill:#ffffff"
   id="g4">
		<path
   style="fill:#ffffff"
   id="path2"
   d="M412.113,170.747c-6.637,0-12.02,5.381-12.02,12.02v75.104c0,79.452-64.639,144.09-144.092,144.09    S111.91,337.321,111.91,257.87v-75.104c0-6.639-5.383-12.02-12.02-12.02c-6.639,0-12.02,5.381-12.02,12.02v75.104    c0,88.666,68.993,161.512,156.111,167.696v62.395h-62.174c-6.637,0-12.02,5.381-12.02,12.02c0,6.639,5.382,12.02,12.02,12.02    h148.386c6.637,0,12.02-5.381,12.02-12.02c0-6.639-5.382-12.02-12.02-12.02H268.02v-62.395    c87.119-6.184,156.111-79.031,156.111-167.696v-75.104C424.133,176.128,418.75,170.747,412.113,170.747z" />
	</g>
</g>
<g
   style="fill:#ffffff"
   id="g12">
	<g
   style="fill:#ffffff"
   id="g10">
		<path
   style="fill:#ffffff"
   id="path8"
   d="M264.011,0h-16.02c-54.949,0-99.653,44.704-99.653,99.653V265.88c0,54.949,44.704,99.653,99.653,99.653h16.02    c54.949,0,99.653-44.704,99.653-99.653V99.653C363.664,44.704,318.96,0,264.011,0z M339.625,130.853h-43.572    c-6.639,0-12.02,5.381-12.02,12.02c0,6.639,5.381,12.02,12.02,12.02h43.572v33.458h-43.572c-6.639,0-12.02,5.381-12.02,12.02    s5.381,12.02,12.02,12.02h43.572v33.46h-43.572c-6.639,0-12.02,5.381-12.02,12.02s5.381,12.02,12.02,12.02h43.464    c-2.091,39.836-35.157,71.603-75.505,71.603h-16.02c-40.348,0-73.414-31.767-75.505-71.603h43.464    c6.639,0,12.02-5.381,12.02-12.02s-5.381-12.02-12.02-12.02h-43.572v-33.46h43.572c6.639,0,12.02-5.381,12.02-12.02    s-5.381-12.02-12.02-12.02h-43.572v-33.458h43.572c6.639,0,12.02-5.381,12.02-12.02c0-6.639-5.381-12.02-12.02-12.02h-43.572    v-31.2c0-29.964,17.52-55.914,42.854-68.143v33.983c0,6.639,5.382,12.02,12.02,12.02s12.02-5.381,12.02-12.02V24.558    c2.863-0.331,30.595-0.331,33.458,0v40.935c0,6.639,5.381,12.02,12.02,12.02c6.637,0,12.02-5.381,12.02-12.02V31.51    c25.334,12.229,42.854,38.177,42.854,68.142V130.853z" />
	</g>
</g>
<g
   id="g14">
</g>
<g
   id="g16">
</g>
<g
   id="g18">
</g>
<g
   id="g20">
</g>
<g
   id="g22">
</g>
<g
   id="g24">
</g>
<g
   id="g26">
</g>
<g
   id="g28">
</g>
<g
   id="g30">
</g>
<g
   id="g32">
</g>
<g
   id="g34">
</g>
<g
   id="g36">
</g>
<g
   id="g38">
</g>
<g
   id="g40">
</g>
<g
   id="g42">
</g>
</svg>
